# xmcd CD database file
#
# Track frame offsets:
#	150
#	19520
#	36574
#	46102
#	64464
#	75488
#	90373
#	100561
#	116815
#	130001
#	151453
#
# Disc length: 2165 seconds
#
# Revision: 0
# Processed by: cddbd v1.5.2PL0 Copyright (c) Steve Scherf et al.
# Submitted via: CDex 1.70beta2
#
DISCID=8008730b
DTITLE=swamp duck - the quack of dawn
DYEAR=2008
DGENRE=Country
TTITLE0=beware of the pluckley ghosts
TTITLE1=block of stone
TTITLE2=swamp bank theme
TTITLE3=beech court blues
TTITLE4=rondo alla turkey
TTITLE5=hang my coat
TTITLE6=swamp lake
TTITLE7=jailhouse rocking chair
TTITLE8=hall of the mountain king
TTITLE9=she don't like me (playing the blues)
TTITLE10=spittin' feathers
EXTD=YEAR: 2008
EXTT0=
EXTT1=
EXTT2=
EXTT3=
EXTT4=
EXTT5=
EXTT6=
EXTT7=
EXTT8=
EXTT9=
EXTT10=
PLAYORDER=
